<mxfile host="app.diagrams.net" agent="Mozilla/5.0 (Windows NT 10.0; Win64; x64) AppleWebKit/537.36 (KHTML, like Gecko) Chrome/128.0.0.0 YaBrowser/24.10.0.0 Safari/537.36" version="25.0.3">
  <diagram id="C5RBs43oDa-KdzZeNtuy" name="Page-1">
    <mxGraphModel dx="1434" dy="791" grid="1" gridSize="10" guides="1" tooltips="1" connect="1" arrows="1" fold="1" page="1" pageScale="1" pageWidth="827" pageHeight="1169" math="0" shadow="0">
      <root>
        <mxCell id="WIyWlLk6GJQsqaUBKTNV-0" />
        <mxCell id="WIyWlLk6GJQsqaUBKTNV-1" parent="WIyWlLk6GJQsqaUBKTNV-0" />
        <mxCell id="DdkDr-xKvb-kUVAr0tlu-1" value="" style="rounded=0;whiteSpace=wrap;html=1;" vertex="1" parent="WIyWlLk6GJQsqaUBKTNV-1">
          <mxGeometry x="190" y="150" width="410" height="370" as="geometry" />
        </mxCell>
        <mxCell id="DdkDr-xKvb-kUVAr0tlu-2" value="VMWARE ESXI&lt;div&gt;10.1.10.16&lt;/div&gt;" style="rounded=0;whiteSpace=wrap;html=1;" vertex="1" parent="WIyWlLk6GJQsqaUBKTNV-1">
          <mxGeometry x="330" y="150" width="120" height="60" as="geometry" />
        </mxCell>
        <mxCell id="DdkDr-xKvb-kUVAr0tlu-3" value="10.1.10.249&lt;div&gt;Frontend-nginx&lt;/div&gt;&lt;div&gt;Grafana&lt;/div&gt;&lt;div&gt;ELK&lt;/div&gt;" style="rounded=0;whiteSpace=wrap;html=1;" vertex="1" parent="WIyWlLk6GJQsqaUBKTNV-1">
          <mxGeometry x="330" y="270" width="140" height="80" as="geometry" />
        </mxCell>
        <mxCell id="DdkDr-xKvb-kUVAr0tlu-4" value="10.1.10.250&lt;div&gt;Apache&lt;/div&gt;&lt;div&gt;Mysql&lt;/div&gt;&lt;div&gt;Master&lt;/div&gt;" style="rounded=0;whiteSpace=wrap;html=1;" vertex="1" parent="WIyWlLk6GJQsqaUBKTNV-1">
          <mxGeometry x="240" y="390" width="120" height="80" as="geometry" />
        </mxCell>
        <mxCell id="DdkDr-xKvb-kUVAr0tlu-7" value="10.1.10.251&lt;div&gt;Apache&lt;/div&gt;&lt;div&gt;Mysql&lt;/div&gt;&lt;div&gt;Slave&lt;/div&gt;" style="rounded=0;whiteSpace=wrap;html=1;" vertex="1" parent="WIyWlLk6GJQsqaUBKTNV-1">
          <mxGeometry x="430" y="390" width="120" height="80" as="geometry" />
        </mxCell>
        <mxCell id="DdkDr-xKvb-kUVAr0tlu-8" value="" style="endArrow=classic;startArrow=classic;html=1;rounded=0;exitX=0.75;exitY=0;exitDx=0;exitDy=0;entryX=0.25;entryY=1;entryDx=0;entryDy=0;" edge="1" parent="WIyWlLk6GJQsqaUBKTNV-1" source="DdkDr-xKvb-kUVAr0tlu-4" target="DdkDr-xKvb-kUVAr0tlu-3">
          <mxGeometry width="50" height="50" relative="1" as="geometry">
            <mxPoint x="390" y="330" as="sourcePoint" />
            <mxPoint x="440" y="280" as="targetPoint" />
            <Array as="points" />
          </mxGeometry>
        </mxCell>
        <mxCell id="DdkDr-xKvb-kUVAr0tlu-9" value="" style="endArrow=classic;startArrow=classic;html=1;rounded=0;entryX=0.392;entryY=0.013;entryDx=0;entryDy=0;entryPerimeter=0;exitX=0.75;exitY=1;exitDx=0;exitDy=0;" edge="1" parent="WIyWlLk6GJQsqaUBKTNV-1" source="DdkDr-xKvb-kUVAr0tlu-3" target="DdkDr-xKvb-kUVAr0tlu-7">
          <mxGeometry width="50" height="50" relative="1" as="geometry">
            <mxPoint x="390" y="330" as="sourcePoint" />
            <mxPoint x="440" y="280" as="targetPoint" />
          </mxGeometry>
        </mxCell>
        <mxCell id="DdkDr-xKvb-kUVAr0tlu-10" value="" style="endArrow=classic;startArrow=classic;html=1;rounded=0;exitX=0;exitY=0.5;exitDx=0;exitDy=0;entryX=1;entryY=0.5;entryDx=0;entryDy=0;" edge="1" parent="WIyWlLk6GJQsqaUBKTNV-1" source="DdkDr-xKvb-kUVAr0tlu-7" target="DdkDr-xKvb-kUVAr0tlu-4">
          <mxGeometry width="50" height="50" relative="1" as="geometry">
            <mxPoint x="390" y="330" as="sourcePoint" />
            <mxPoint x="440" y="280" as="targetPoint" />
          </mxGeometry>
        </mxCell>
      </root>
    </mxGraphModel>
  </diagram>
</mxfile>
